<?xml version="1.0" encoding="UTF-8"?>
<svg viewBox="0 80 67.202705 300.7327" xmlns="http://www.w3.org/2000/svg">
 <g transform="translate(-1094.6 -140.07)">
  <path d="m1095.0514,455.3576c0-.53697.118-1.05817.3194-1.54027 .9135-2.18677 3.6055-3.58112 5.6748-1.81852 2.335,1.98884 4.6586,3.99751 6.9703,6.02645l.1842.16059c2.4815,2.14896 5.7626,4.46734 5.6603,7.52729-.032.95125-.3886,1.86008-.9389,2.59639-.5361.71722-1.2608,1.28229-2.0437,1.56418-.3508.12628-.7154.20148-1.0795.20778-.1741.002-.3488-.0108-.522-.0404-.085-.0145-.1697-.0332-.2539-.0562-.1707-.0467-.3392-.11126-.5043-.19457-.078-.0394-.1551-.0829-.2315-.13053-.1493-.0931-.2955-.20204-.4385-.32599l-.1636-.15227-.8697-.84308c-1.3225-1.26267-2.6586-2.50215-4.0013-3.731-.6284-.5751-1.2582-1.14783-1.8894-1.71836-2.4628-2.22612-5.8892-4.55877-5.8727-7.53154z" fill="#decd87" stroke="#28220b"/>
  <path d="m1097.9 446.86c-0.021-1.4911 0.8167-2.8776 1.9816-3.6392s2.6598-0.89837 3.944 0.15176c2.3747 1.9418 4.7388 3.9027 7.092 5.8831 2.5452 2.1421 6.0386 4.4293 6.0148 7.5419-0.011 1.4938-0.8338 2.8918-1.9611 3.6875-1.2218 0.86232-2.7983 1.0174-4.0934-0.13352-0.772-0.68603-1.5455-1.3694-2.3203-2.0504-1.5359-1.3499-3.0771-2.6908-4.6234-4.023-2.5162-2.1677-5.9912-4.4361-6.0342-7.4183z" fill="#decd87" stroke="#28220b"/>
  <path d="m1100.5 438.29c-0.051-1.492 0.7607-2.8965 1.9109-3.6817s2.6424-0.95105 3.9466 0.0744c2.4116 1.8962 4.8135 3.8108 7.2054 5.7442 2.5871 2.0912 6.1253 4.3075 6.1653 7.417 0.02 1.5548-0.8417 3.023-2.0253 3.8224s-2.6855 0.92948-3.9537-0.14974c-2.3448-1.9956-4.7009-3.9714-7.0676-5.9279-2.5599-2.1162-6.0803-4.3149-6.1816-7.2987z" fill="#decd87" stroke="#28220b"/>
  <path d="m1103 429.67c-0.027-0.51328 0.048-1.0179 0.205-1.4922 0.7524-2.2881 3.3937-3.8914 5.5847-2.231 2.4466 1.854 4.8836 3.7254 7.3113 5.6128l0.3576 0.27461c2.581 1.9608 5.8523 4.054 5.9488 7.0203 0.051 1.5526-0.7817 3.0355-1.9491 3.8571s-2.6662 0.9812-3.9556-0.0723c-2.3843-1.948-4.7788-3.877-7.1831-5.7874-2.6006-2.0663-6.1628-4.1977-6.3196-7.182z" fill="#decd87" stroke="#28220b"/>
  <path d="m1105.4 420.99c-0.1058-1.4918 0.6535-2.9266 1.7747-3.7536s2.6073-1.0473 3.9494-0.0697c2.4817 1.8076 4.9539 3.6349 7.4164 5.4806 2.6636 1.9964 6.2817 4.0831 6.4373 7.1828 0.077 1.5228-0.6999 2.9915-1.8197 3.8394-1.1589 0.88007-2.684 1.0928-4.0161 0.0463-0.7588-0.59614-1.5185-1.1905-2.2792-1.783-1.6659-1.2974-3.3362-2.5873-5.011-3.8692-2.6385-2.0195-6.2401-4.0901-6.4518-7.0735z" fill="#decd87" stroke="#28220b"/>
  <path d="m1116.9 407.22c-0.9867-0.38608-1.8887-1.0345-2.5911-1.8035s-1.2042-1.6559-1.4453-2.5049-0.2231-1.657 0.066-2.2983 0.8473-1.1138 1.6744-1.3596c3.0589-0.90899 5.9156-2.1797 8.503-3.7548 1.3992-0.85183 2.835-1.997 4.1335-2.9399s2.4369-1.692 3.3721-1.7605c0.4934-0.0362 0.8902 0.12141 1.2145 0.4264s0.5785 0.75794 0.7505 1.3152c0.1726 0.49096 0.2707 1.0754 0.2393 1.706s-0.1927 1.3093-0.5836 1.9688c-0.377 0.63617-0.7776 1.262-1.2002 1.8756-1.279 1.8709-2.7865 3.626-4.4939 5.2408-1.2253 1.1588-2.5985 2.4916-4.2005 3.3683s-3.4656 1.2925-5.439 0.52037z" fill="#decd87" stroke="#28220b"/>
  <path d="m1107.5 412.27c-0.1348-1.4866 0.5959-2.9323 1.7001-3.7797s2.5854-1.0976 3.9474-0.14845c2.5183 1.755 5.027 3.532 7.526 5.3297 2.703 1.9445 6.3626 3.9633 6.5761 7.0675 0.1068 1.5522-0.6721 3.0654-1.8096 3.929s-2.6305 1.0778-3.9584 0.072c-2.4554-1.8597-4.9204-3.7015-7.395-5.524-2.6765-1.9713-6.317-3.9731-6.5866-6.9461z" fill="#decd87" stroke="#28220b"/>
  <path d="m1109.5 403.54c-0.1666-1.4799 0.5319-2.9369 1.6166-3.806s2.5594-1.1519 3.9419-0.23469c2.5566 1.6961 5.1033 3.4165 7.6403 5.16 2.744 1.8858 6.446 3.8281 6.7232 6.9339 0.1385 1.553-0.6101 3.0858-1.7306 3.9742s-2.6097 1.1321-3.9572 0.15135c-2.4918-1.8135-4.9933-3.6067-7.5045-5.3784-2.7161-1.9163-6.3964-3.8406-6.7297-6.8003z" fill="#decd87" stroke="#28220b"/>
  <path d="m1111.3 394.78c-0.2013-1.4718 0.4616-2.9402 1.5242-3.8327s2.5292-1.2105 3.9332-0.32849c2.5962 1.6309 5.1825 3.2885 7.759 4.9715 2.7866 1.8203 6.532 3.6774 6.8784 6.782 0.1732 1.5523-0.5416 3.1051-1.6427 4.0197s-2.5845 1.1906-3.9526 0.23823c-2.5296-1.761-5.0691-3.4994-7.6184-5.214-2.7573-1.8545-6.4785-3.6928-6.8811-6.6363z" fill="#decd87" stroke="#28220b"/>
  <path d="m1107.7031,398.01228c-.7494-.71684-1.326-1.63122-1.6838-2.57337s-.4973-1.91031-.4173-2.75616 .3776-1.56869.8671-2.0594 1.1684-.74889 2.0193-.7119c3.1465.13681 6.2294-.0455 9.2016-.58779 1.6685-.30443 3.4937-.88145 5.1162-1.30146 1.4777-.38878 2.7441-.65233 3.6239-.37424 .9147.28911 1.2938,1.13983 1.2748,2.24977-.01.55497-.1253,1.17205-.3888,1.78197s-.6761,1.21469-1.317,1.70073c-2.3701,1.79747-5.0345,3.31218-7.9261,4.48683-1.488.60441-3.1545,1.31116-4.8705,1.58786s-3.5021.11333-5.0527-1.05527c-.1521-.11933-.3012-.2484-.4467-.38757z" fill="#decd87" stroke="#28220b"/>
  <path d="m1112.9 386.01c-0.2388-1.4622 0.3849-2.9424 1.4229-3.8596s2.4947-1.2732 3.9211-0.42983c2.6373 1.5595 5.2647 3.1481 7.8821 4.7643 2.831 1.7481 6.6206 3.5114 7.042 6.6117 0.2107 1.5502-0.467 3.1232-1.546 4.0654s-2.5552 1.2532-3.9445 0.33265c-2.5691-1.7022-5.1481-3.3796-7.7369-5.0308-2.8002-1.786-6.5632-3.5295-7.0407-6.4539z" fill="#decd87" stroke="#28220b"/>
  <path d="m1114.3 377.23c-0.2791-1.4512 0.302-2.9434 1.3129-3.8868s2.456-1.3401 3.9054-0.53871c2.6801 1.4819 5.35 2.9951 8.0099 4.5383 2.8768 1.6691 6.7117 3.3299 7.2137 6.4231 0.251 1.5467-0.3859 3.1401-1.4403 4.1115s-2.5217 1.3201-3.9332 0.43462c-2.6099-1.6372-5.2299-3.2473-7.8599-4.8289-2.8446-1.7106-6.6503-3.3508-7.2085-6.2531z" fill="#decd87" stroke="#28220b"/>
  <path d="m1115.4 368.43c-0.3223-1.4387 0.2128-2.9432 1.1939-3.9143s2.4133-1.4112 3.8865-0.65514c2.7243 1.398 5.4383 2.8296 8.142 4.2935 2.9245 1.5834 6.8055 3.133 7.3939 6.2162 0.2941 1.5417-0.2987 3.1558-1.3259 4.1579s-2.484 1.391-3.9184 0.54414c-2.6523-1.566-5.3148-3.1025-7.9874-4.6082-2.8907-1.6286-6.74-3.1567-7.3846-6.0341z" fill="#decd87" stroke="#28220b"/>
  <path d="m1116.2 359.63c-0.3683-1.4248 0.1173-2.9418 1.0661-3.9421s2.3662-1.4864 3.8642-0.77911c2.7699 1.3078 5.5295 2.6516 8.2787 4.03 2.9736 1.4909 6.9018 2.9206 7.5821 5.9909 0.3401 1.5352-0.205 3.1704-1.2025 4.2045s-2.4421 1.4662-3.9003 0.6612c-2.6962-1.4885-5.4027-2.9452-8.1193-4.3688-2.9385-1.5397-6.8324-2.9472-7.569-5.7967z" fill="#decd87" stroke="#28220b"/>
  <path d="m1116.7 350.78c-0.4036-1.5125 0.071-3.1594 1.0233-4.2304s2.3763-1.5654 3.8696-0.82757c2.7612 1.3643 5.5298 2.7025 8.306 4.0126 1.715 0.80939 3.7428 1.5672 5.322 2.595 1.183 0.81044 2.1072 1.8014 2.4409 3.1113 0.3889 1.5273-0.1052 3.1838-1.0703 4.2515s-2.3961 1.5455-3.8788 0.78581c-2.7416-1.4048-5.4935-2.7754-8.2558-4.1105-2.7458-1.3272-6.2977-2.5173-7.5002-4.8859-0.105-0.22318-0.1913-0.45683-0.2567-0.70181z" fill="#decd87" stroke="#28220b"/>
  <path d="m1117.3 341.35c-0.3664-1.5172 0.1473-3.146 1.1238-4.1907s2.4119-1.5049 3.8876-0.73335c2.7288 1.4266 5.4645 2.8302 8.2072 4.2089 2.9666 1.4913 6.8866 2.8454 7.6586 5.7114 0.3859 1.433-0.084 2.9713-1.0246 3.9896s-2.354 1.519-3.8584 0.82215c-2.7818-1.2885-5.5559-2.6056-8.3226-3.9496-2.9924-1.4537-6.9387-2.8242-7.6716-5.8584z" fill="#decd87" stroke="#28220b"/>
  <path d="m1118.1 331.97c-0.3334-1.5204 0.2144-3.1321 1.2122-4.153s2.4424-1.4508 3.9024-0.65001c2.6996 1.4806 5.4054 2.9414 8.1178 4.3805 2.9337 1.5565 6.8237 3.0008 7.5269 5.8936 0.3516 1.4464-0.1569 2.9788-1.1224 3.9768s-2.3915 1.4639-3.8776 0.72865c-2.7479-1.3595-5.4887-2.7444-8.2226-4.1532-2.957-1.5237-6.8699-2.9827-7.5367-6.0234z" fill="#decd87" stroke="#28220b"/>
  <path d="m1119.1 322.64c-0.6089-3.0442 2.3107-6.3457 5.2024-4.6947 2.6735 1.5264 5.3528 3.0361 8.0379 4.5272 2.9043 1.6128 6.767 3.1356 7.4097 6.0522 0.3214 1.4583-0.2206 2.9857-1.2081 3.9659s-2.4241 1.4152-3.8936 0.64604c-2.7171-1.4222-5.4278-2.8667-8.132-4.3319-2.925-1.5847-6.8073-3.1206-7.4163-6.1648z" fill="#decd87" stroke="#28220b"/>
  <path d="m1120.2 313.35c-0.5593-3.0446 2.408-6.2908 5.2749-4.5993 2.6505 1.5639 5.3062 3.1142 7.9673 4.649 2.8783 1.6601 6.7165 3.2499 7.307 6.1872s-2.279 6.1285-5.1881 4.5313c-2.6895-1.4766-5.3731-2.9725-8.0509-4.4858-2.8963-1.6368-6.7509-3.238-7.3102-6.2826z" fill="#decd87" stroke="#28220b"/>
  <path d="m1121.5 304.12c-0.1291-0.7582-0.04-1.528 0.2121-2.2284 0.7576-2.1125 2.984-3.5861 5.1201-2.2906 2.2476 1.363 4.4986 2.7172 6.7531 4.0618l1.153 0.68671c2.8556 1.6985 6.6721 3.3435 7.2186 6.2987s-2.3764 6.1106-5.259 4.4635c-2.6652-1.5228-5.3248-3.0617-7.9792-4.6149-2.8711-1.6799-6.7007-3.3348-7.2187-6.3768z" fill="#decd87" stroke="#28220b"/>
  <path d="m1122.9 294.92c-0.483-3.0446 2.556-6.2069 5.3821-4.451 2.6128 1.6234 5.2297 3.2362 7.8509 4.8376 2.8352 1.7321 6.6313 3.4225 7.14 6.3884 0.202 1.1776-0.1442 2.3758-0.8131 3.2907-1.0156 1.3909-2.7789 2.131-4.5031 1.1132-1.3408-0.79155-2.6804-1.5864-4.0188-2.3844-1.3005-0.7753-2.5998-1.5538-3.8979-2.3353-2.8491-1.7152-6.6571-3.4146-7.1401-6.4591z" fill="#decd87" stroke="#28220b"/>
  <path d="m1124.4 285.75c-0.4523-3.0442 2.6153-6.171 5.4249-4.3896 2.5976 1.647 5.1986 3.2853 7.8034 4.9138 2.8173 1.7614 6.5958 3.4933 7.0705 6.47s-2.5295 6.0709-5.3682 4.3484c-2.6244-1.5924-5.2445-3.1968-7.8604-4.8119-2.8293-1.747-6.618-3.4866-7.0702-6.5307z" fill="#decd87" stroke="#28220b"/>
  <path d="m1126 276.62c-0.4264-3.0428 2.6646-6.139 5.4603-4.3367 2.5849 1.6663 5.1725 3.3256 7.7634 4.9768 2.8022 1.786 6.5657 3.5531 7.0112 6.5396s-2.5923 6.0558-5.4127 4.3026c-2.6075-1.6209-5.2113-3.2519-7.8115-4.892-2.8123-1.774-6.5843-3.5476-7.0107-6.5903z" fill="#decd87" stroke="#28220b"/>
  <path d="m1127.7 267.51c-0.4054-3.0405 2.7036-6.1109 5.4882-4.2924 2.5746 1.6812 5.1514 3.3571 7.7308 5.0267 2.7899 1.8058 6.541 3.6018 6.9622 6.5972s-2.6448 6.0446-5.4497 4.2654c-2.5932-1.6449-5.1831-3.2982-7.7701-4.959-2.7981-1.7963-6.5559-3.5976-6.9614-6.638z" fill="#decd87" stroke="#28220b"/>
  <path d="m1129.4 258.43c-0.1788-1.3949 0.383-2.7944 1.3119-3.7207 1.0941-1.0936 2.6963-1.5283 4.1972-0.53762l2.8971 1.9093c1.6021 1.0536 3.2048 2.1056 4.8082 3.1558 2.7802 1.821 6.5216 3.6395 6.9234 6.6429s-2.6872 6.0372-5.4792 4.2368c-2.5813-1.6646-5.16-3.3359-7.7363-5.0129-2.7865-1.8139-6.5329-3.6365-6.9223-6.6736z" fill="#decd87" stroke="#28220b"/>
  <path d="m1131.1 249.37c-0.3762-3.0354 2.7543-6.0631 5.5246-4.2253 2.5612 1.6991 5.1228 3.3977 7.6857 5.0931 2.772 1.8338 6.5041 3.6726 6.891 6.6779 0.076 0.59148 0.017 1.1828-0.1481 1.7374-0.6748 2.2694-3.1187 3.935-5.353 2.4756l-7.5973-4.9796c-0.038-0.0247-0.075-0.0494-0.1126-0.0741-2.7776-1.8274-6.5142-3.6698-6.8903-6.7051z" fill="#decd87" stroke="#28220b"/>
  <path d="m1132.9 240.35c-0.3745-3.0217 2.7489-6.0355 5.5217-4.204 2.5635 1.6933 5.1256 3.3904 7.6871 5.0889 2.7706 1.8371 6.5007 3.6862 6.8755 6.707s-2.7479 6.0344-5.5211 4.2036c-2.5638-1.6926-5.1262-3.3894-7.6878-5.0877-2.7707-1.8369-6.501-3.6861-6.8754-6.7077z" fill="#decd87" stroke="#28220b"/>
  <path d="m1134.7 231.38c-0.3858-3.0063 2.7172-6.0196 5.5003-4.2066 2.5732 1.6762 5.143 3.3607 7.7104 5.051 2.777 1.8282 6.513 3.6714 6.8888 6.706s-2.7547 6.0613-5.5249 4.2236l-7.6852-5.0937c-2.7717-1.8343-6.5035-3.674-6.8894-6.6802z" fill="#decd87" stroke="#28220b"/>
  <path d="m1136.4 222.44c-0.4104-2.9891 2.6591-6.0154 5.4604-4.233 2.59 1.6479 5.1748 3.3086 7.7555 4.9795 2.7912 1.8073 6.541 3.6281 6.9309 6.6747s-2.735 6.1-5.5102 4.2674l-7.7044-5.0661c-2.7806-1.8195-6.5217-3.6335-6.9322-6.6225z" fill="#decd87" stroke="#28220b"/>
  <path d="m1138 213.54c-0.2274-1.473 0.4073-2.9418 1.45-3.8423s2.5003-1.2434 3.9232-0.3969c2.6312 1.5652 5.2467 3.1765 7.8517 4.8139 2.5998 1.6341 6.0097 3.2917 6.8492 5.934 0.07 0.2218 0.1227 0.45061 0.1549 0.68694 0.4172 3.057-2.6889 6.1504-5.4768 4.335-2.5776-1.6784-5.1591-3.3476-7.7454-5.0049-1.582-1.0137-3.4725-2.0217-4.8965-3.2427-1.0942-0.93927-1.9128-2.0032-2.1103-3.2831z" fill="#decd87" stroke="#28220b"/>
  <path d="m1139.4 204.86c-0.1286-0.62524-0.09-1.2542 0.079-1.8404 0.2832-1.102 0.9817-1.9709 1.8889-2.4511s2.0314-0.59965 3.1784-0.0359c2.5142 1.2357 4.9974 2.6417 7.4631 4.0344l0.6228 0.35592c1.445 0.82893 3.1244 1.6603 4.5055 2.6835s2.4634 2.2426 2.7033 3.8134-0.4122 3.1705-1.4749 4.1334-2.5324 1.297-3.9373 0.40221c-2.598-1.6546-5.2045-3.2907-7.8248-4.8882-2.8342-1.7279-6.6239-3.3896-7.2035-6.2072z" fill="#decd87" stroke="#28220b"/>
  <path d="m1140.2 197.11c-0.213-0.43251-0.2682-0.8398-0.2044-1.2149 0.1006-1.0855 0.6143-2.1177 1.4074-2.7949s1.868-1.0012 3.0917-0.62991c2.6599 0.80711 5.3153 1.6575 7.9644 2.5419l0.8045 0.30016c1.571 0.60665 3.3584 1.2642 4.8538 2.2562s2.6974 2.347 3.0288 4.0896c0.2841 1.494-0.127 2.9476-0.9015 3.9234-1.0185 1.3871-2.6906 2.0505-4.3322 1.0762-1.1668-0.69246-2.3374-1.3746-3.5123-2.0449-1.4987-0.84685-3.0039-1.6997-4.5187-2.5172-1.4608-0.78837-3.1681-1.534-4.609-2.347s-2.6048-1.689-3.0725-2.6387z" fill="#decd87" stroke="#28220b"/>
  <path d="m1139.5 189.13c-0.618-1.2995-0.4182-2.8278 0.3249-3.9599s2.0368-1.8793 3.6429-1.4944c2.9698 0.7117 5.9369 1.4979 8.8989 2.3463 3.2038 0.91764 7.343 1.6382 8.5583 4.5923 0.5126 1.2462 0.4115 2.6721-0.1187 3.8054-0.3587 1.0482-0.9493 1.8355-1.6653 2.2411s-1.5535 0.43412-2.4452 3e-3c-1.2938-0.62502-2.6021-1.1907-3.9265-1.6751-1.5942-0.53317-3.1906-1.0541-4.7889-1.5607-3.1643-1.003-7.2444-1.6995-8.4804-4.2983z" fill="#decd87" stroke="#28220b"/>
  <path d="m1138.4 180.7c-0.8846-1.5614-0.488-3.5732 0.7395-4.7463 0.693-0.67075 1.6676-1.0632 2.851-0.87568l0.6923 0.11139c2.7834 0.45043 5.5668 0.98242 8.3482 1.5862 1.6286 0.35356 3.4816 0.64343 5.1079 1.2175s3.028 1.438 3.7233 2.9102 0.536 3.2504-0.2092 4.5082-2.0661 1.9957-3.666 1.512c-2.9584-0.89423-5.9227-1.7309-8.8906-2.4977-3.2102-0.82938-7.3091-1.2774-8.6964-3.726z" fill="#decd87" stroke="#28220b"/>
  <path d="m1136.6115,172.61954c-.778-1.09425-.7806-2.47314-.2201-3.61846s1.6891-2.0987 3.3233-2.0743c3.0217.0451 6.0796.28571 9.1495.66759 1.6602.20653 3.5409.34469 5.2196.80416s3.1589,1.25031 3.9573,2.69484c.1258.22761.2306.46411.3151.70583 .5074,1.42598.3271,3.04864-.3655,4.19575s-1.8884,1.8181-3.388,1.46119c-3.0101-.71639-6.0235-1.35322-9.0377-1.89813-.8601-.15549-1.7821-.27847-2.7011-.41704-2.569-.39091-5.1069-.91038-6.2524-2.52143z" fill="#decd87" stroke="#28220b"/>
  <path d="m1134.2347,165.55222c-.2535-.23052-.4498-.49049-.5939-.77011-.529-.84541-.4126-1.79088.098-2.67916 .2551-.44414.6062-.87845 1.0492-1.26305s.979-.72082 1.6366-.91371c2.8365-.8321 5.9556-1.19185 9.046-1.32807l1.17-.0581c1.5512-.0772 3.2072-.13123 4.7214.17014s2.8924.96721 3.8126,2.26779c1.0389,1.46839 1.25,3.42015.7414,4.86381s-1.706,2.38723-3.3701,2.12643c-3.0769-.48225-6.151-.84353-9.1981-1.02962-1.6479-.10063-3.4975-.0401-5.1441-.16168s-3.0809-.41727-3.9688-1.2247z" fill="#decd87" stroke="#28220b"/>
  <path d="m1131.758,161.26793c-.1693.0502-.2703.0787-.3244.0837 .017.0514.2322-.001.5212-.15453s.643-.40516.9232-.75302c.3246-.37819.4992-.88784.5888-1.45758s.095-1.20352.1842-1.85501c.066-.48352.1791-.96051.3377-1.4239 .808-2.25904 2.7577-4.0487 5.109-5.27325l.8368-.41861c1.4533-.71855 3.1092-1.3716 4.8705-1.47062 .8807-.0495 1.7859.0406 2.6724.32228s1.7548.75588 2.5217,1.44902c.8946.80859 1.5405,1.82259 1.8779,2.82155s.3724,1.98185.1677,2.807c-.2956,1.45699-1.2905,2.45996-2.8767,2.44283-.749-.008-1.4958-.004-2.24.0141-2.3433.0579-4.728.22591-7.017.61364-1.627.27559-3.3954.80385-4.8957,1.25684s-2.7063.83224-3.2573.99551z" fill="#decd87" stroke="#28220b"/>
  <path d="m1135.4152,161.21913c.2331.0871.3954.11055.4338.10258s-.047-.0478-.2484-.11095c-.403-.12627-1.2734-.33638-2.1497-.73562-.6667-.28757-1.3484-.72368-1.8861-1.42264-.013-.0173-.027-.0347-.04-.0523-1.7043-2.29046-3.3156-5.04099-3.9114-8.1587-.2407-1.25954-.4328-2.6672-.2102-4.13676s.8581-3.01401 2.4492-4.42798c1.1812-.88059 2.783-1.56257 4.7904-1.68211 .923-.055 1.8861.0164 2.8395.21255 1.5746.37514 2.9602.99885 4.02,1.73838s1.7982,1.59022 2.2314,2.40342c.4564.95036.5713,1.81065.3666,2.47907s-.7239,1.14334-1.5434,1.40028c-.836.26212-1.6456.56736-2.4226.92045-2.1776.94873-4.1163,2.35146-5.3028,4.14176-.3097.46732-.5747.98975-.7794,1.545-.3325.93655-.499,1.94855-.4447,2.87272s.3344,1.76355.869,2.28927c.2944.31245.6507.51417.9384.6216z" fill="#decd87" stroke="#28220b"/>
  <path d="m1134.0552,163.60034c.018.50651-.1537.95889-.4755,1.35884s-.7941.7468-1.3581.99001c-1.1279.48642-2.6216.55804-3.8955-.46133-2.3556-1.8849-4.647-3.93069-6.7305-6.24039-1.1268-1.24911-2.438-2.62531-3.2892-4.22019s-1.2445-3.43479-.3761-5.50024c.079-.18839.1676-.37497.2644-.55891 .4495-1.03769 1.2702-1.99864 2.291-2.73027s2.2298-1.22971 3.321-1.42397 2.0491-.0873 2.6529.29399 .8479,1.0287.7697,1.90457c-.303,3.39386.756,6.45367 2.2546,9.08652 .5464.96009 1.2454,1.92237 1.8968,2.81468 .6604.90365 1.3106,1.75932 1.8076,2.53842s.8434,1.47682.8669,2.14827z" fill="#decd87" stroke="#28220b"/>
  <path d="m1131.7 170.05c0.1521 1.2673-0.4994 2.4628-1.541 3.2103s-2.492 1.0439-3.9029 0.211c-2.6088-1.5401-5.162-3.2143-7.647-5.0397-1.2715-0.93399-2.7422-1.9143-3.9355-3.0745s-2.1106-2.5082-2.2337-4.1422c-0.016-0.18715-0.021-0.37861-0.014-0.57452 0.033-0.90866 0.3272-1.8262 0.8001-2.6351s1.123-1.5063 1.8306-1.9771 1.4687-0.71304 2.1685-0.65381 1.335 0.41876 1.8507 1.1021c1.9073 2.5271 4.0763 4.7513 6.3631 6.7757 1.306 1.1561 2.9138 2.2921 4.1562 3.4702 1.118 1.0568 1.961 2.1314 2.1045 3.3276z" fill="#decd87" stroke="#28220b"/>
  <path d="m1130.3 177.61c0.3332 1.292-0.1561 2.6355-1.1011 3.5472s-2.3585 1.3887-3.8651 0.71326c-2.7858-1.249-5.54-2.6032-8.2501-4.0798-1.4656-0.79859-3.1604-1.6092-4.5458-2.6559s-2.4634-2.3385-2.648-4.0606 0.5811-3.5164 1.7309-4.5467 2.6543-1.2831 3.9697-0.23185c2.4325 1.9438 4.9378 3.73 7.5035 5.3756 1.3875 0.88995 3.0295 1.7424 4.4008 2.6842s2.4719 1.9627 2.8052 3.2547z" fill="#decd87" stroke="#28220b"/>
  <path d="m1129.9 185.67c0.4637 1.3078 0.094 2.7619-0.7725 3.7937s-2.2384 1.6388-3.7971 1.0852c-2.8823-1.0238-5.7571-2.124-8.6118-3.3178-1.5439-0.64565-3.3206-1.2714-4.8176-2.1485s-2.7171-2.0122-3.1053-3.6541 0.1504-3.4562 1.1606-4.5937 2.4684-1.5844 3.9154-0.73376c2.6757 1.5729 5.4002 3.0168 8.161 4.3491 1.493 0.72047 3.2337 1.3818 4.7115 2.1817s2.6922 1.7304 3.1558 3.0382z" fill="#decd87" stroke="#28220b"/>
  <path d="m1130.1 194.08 0.054 0.13808c0.4856 1.2604 0.1992 2.7021-0.5881 3.7604s-2.0858 1.7312-3.6495 1.3015c-2.9427-0.80858-5.8772-1.6906-8.802-2.6648-1.253-0.41737-2.6503-0.81136-3.9512-1.334-1.9867-0.78067-3.7624-1.8475-4.4159-3.7228-0.541-1.5527-0.1875-3.3496 0.7016-4.5504s2.2959-1.791 3.831-1.1053c2.8385 1.2679 5.7018 2.4357 8.5772 3.5205 1.555 0.58668 3.3484 1.1004 4.8849 1.7906s2.815 1.5516 3.3583 2.8662z" fill="#decd87" stroke="#28220b"/>
  <path d="m1130.9 202.44c0.6543 1.2749 0.5031 2.8275-0.2079 3.9984s-1.9885 1.9557-3.6056 1.595c-2.99-0.66708-5.977-1.3747-8.9593-2.1417-3.2258-0.82961-7.3829-1.4124-8.6689-4.4134-0.643-1.5006-0.4225-3.3063 0.3696-4.5621s2.1442-1.9464 3.7222-1.38c2.9179 1.0473 5.8461 1.9953 8.783 2.8628 1.5883 0.46917 3.4086 0.84912 4.99 1.4247s2.9227 1.3415 3.5769 2.6164z" fill="#decd87" stroke="#28220b"/>
  <path d="m1132.3 211.06c0.9229 1.6734 0.5044 3.8923-0.7798 5.0912-0.7053 0.65455-1.6732 1.0009-2.8266 0.76877l-0.6003-0.12108c-2.8067-0.57269-5.6152-1.1532-8.424-1.7568-3.2546-0.6994-7.4221-1.0747-8.8528-3.906-0.7153-1.4157-0.5947-3.1711 0.1191-4.4439s2.0133-2.0498 3.6244-1.609c2.9791 0.81493 5.9634 1.5635 8.9513 2.2644 3.2317 0.75811 7.3586 1.1197 8.7887 3.7125z" fill="#decd87" stroke="#28220b"/>
  <path d="m1133.9212,219.89246c1.4857,2.60168-.2323,6.55452-3.4961,5.94457-3.0175-.56392-6.0348-1.13976-9.052-1.73233-3.2634-.64093-7.4251-.93974-8.9155-3.66644-.1117-.20421-.205-.41604-.2807-.63287-.4682-1.3261-.2654-2.85266.4355-3.95854s1.8975-1.78384 3.4031-1.44893c3.0094.66941 6.019,1.30529 9.027,1.92639 .887.18315 1.8404.33912 2.7877.5226 2.5277.4851 5.0103,1.15322 6.091,3.04555z" fill="#decd87" stroke="#28220b"/>
  <path d="m1135.7 228.76c1.5231 2.6084-0.1586 6.6054-3.4286 6.015l-9.0694-1.6525c-3.2699-0.60295-7.4307-0.84334-8.9566-3.5222s0.2034-6.7287 3.4671-6.0732c3.0173 0.60599 6.0346 1.1935 9.0521 1.7672 3.2637 0.62058 7.4124 0.85739 8.9354 3.4656z" fill="#decd87" stroke="#28220b"/>
  <path d="m1137.6 237.69c0.8756 1.4932 0.7125 3.44-0.1933 4.7324-0.6876 0.97839-1.8024 1.5808-3.2138 1.325l-1.6075-0.29114-7.4655-1.3495c-3.2712-0.58993-7.4289-0.80368-8.9699-3.446s0.1455-6.6823 3.4155-6.0719c3.0233 0.5644 6.0464 1.1188 9.0696 1.6679 3.2699 0.59395 7.4248 0.80694 8.9649 3.4333z" fill="#decd87" stroke="#28220b"/>
  <path d="m1139.5693,246.68286c1.5397,2.64902-.154,6.69676-3.4233,6.07644-3.0225-.57352-6.0449-1.13345-9.0674-1.68613-3.2691-.5978-7.4232-.81225-8.9606-3.43791-.182-.3109-.319-.64139-.4136-.98159-.7036-2.524.939-5.58583 3.823-5.06532l9.0732,1.63778c.5626.10186 1.1513.19282 1.7485.28708 2.875.45247 5.9454.97629 7.2202,3.16965z" fill="#decd87" stroke="#28220b"/>
  <path d="m1141.5 255.78c0.7591 1.3488 0.7047 3.0463 0.048 4.3146s-1.9122 2.1026-3.5422 1.7623c-3.014-0.62926-6.0283-1.2337-9.0429-1.8198-3.2606-0.63388-7.4065-0.88091-8.9214-3.4832s0.1723-6.5914 3.4414-5.9986c3.0225 0.54803 6.0448 1.1009 9.0672 1.665 3.269 0.61014 7.4313 0.86211 8.9495 3.5597z" fill="#decd87" stroke="#28220b"/>
  <path d="m1143.2 265c0.5584 1.0489 0.6418 2.2922 0.3482 3.3828-0.4744 1.7448-1.9509 3.1123-3.9662 2.6414-1.6379-0.38268-3.275-0.7546-4.9102-1.1224-1.3645-0.30842-2.7292-0.61012-4.094-0.90568-3.2449-0.70272-7.3787-1.0242-8.8439-3.6176s0.2701-6.5235 3.5309-5.9039c3.0148 0.57283 6.0291 1.1617 9.0432 1.773 3.26 0.66118 7.4224 0.99156 8.892 3.7523z" fill="#decd87" stroke="#28220b"/>
  <path d="m1144.8 274.37c0.6998 1.4478 0.5507 3.2492-0.1911 4.5393s-2.0636 2.0437-3.6635 1.5469c-2.9582-0.91865-5.9297-1.7302-8.908-2.4752-1.6107-0.40294-3.4505-0.70994-5.0587-1.2349s-2.9847-1.2631-3.6807-2.5704c-0.3683-0.69194-0.5085-1.4749-0.4559-2.2442 0.1399-2.0906 1.7512-4.0611 4.1377-3.5617 2.4499 0.51271 4.8991 1.0436 7.348 1.5961l1.6519 0.37279c3.2466 0.73611 7.4208 1.1358 8.8203 4.0313z" fill="#decd87" stroke="#28220b"/>
  <path d="m1145.9 284.38c0.4912 1.3637 0.3383 2.9474-0.2565 4.172s-1.6244 2.0746-2.8259 2.0892l-0.1514-2e-3c-0.3822-0.017-0.7805-0.11619-1.1891-0.30668-2.8312-1.3201-5.6916-2.4621-8.575-3.4668-1.5593-0.54333-3.357-0.99371-4.9108-1.6056s-2.8622-1.3758-3.4785-2.6115-0.4323-2.7347 0.3002-3.874 2.022-1.9055 3.6347-1.527c2.9821 0.69986 5.9597 1.4508 8.9264 2.2937 1.6044 0.45582 3.4362 0.86293 5.0209 1.5558s2.9262 1.6769 3.505 3.2834z" fill="#decd87" stroke="#28220b"/>
  <path d="m1146 294.44c0.8983 2.9402-1.6759 6.5022-4.7172 5.15-2.8117-1.2502-5.6269-2.4853-8.4444-3.7102-3.0475-1.3248-7.0432-2.4742-7.9487-5.3652-0.017-0.0547-0.033-0.10958-0.048-0.16467-0.3732-1.1788 0.01-2.4754 0.8493-3.428s2.1656-1.5527 3.7037-1.0724c2.8988 0.90513 5.777 1.9323 8.6283 3.1223 1.2122 0.50589 2.5659 1.0105 3.815 1.6543 1.9262 0.90346 3.6165 2.0294 4.1617 3.8139z" fill="#decd87" stroke="#28220b"/>
  <path d="m1145.8 303.75c0.43 1.4886-0.012 3.1295-0.9419 4.2136s-2.3434 1.608-3.852 0.90316c-2.7895-1.3034-5.5849-2.5833-8.3851-3.8444-3.0287-1.3641-7.0073-2.5543-7.8877-5.4276s1.6684-6.3623 4.7176-5.0452c2.8191 1.2176 5.6362 2.4437 8.4503 3.6831 3.0438 1.3405 7.0388 2.5402 7.8988 5.5174z" fill="#decd87" stroke="#28220b"/>
  <path d="m1145.4 313.13c0.3991 1.5101-0.08 3.1571-1.0358 4.2279s-2.3823 1.5615-3.873 0.81618c-2.7563-1.3782-5.521-2.7245-8.2928-4.0437-2.9981-1.4268-6.9486-2.6889-7.7804-5.5502-0.4159-1.4307 0.024-2.9919 0.9464-4.0372s2.3277-1.5737 3.8438-0.89903c2.8036 1.2475 5.6027 2.5119 8.3964 3.798 3.0216 1.3911 6.9971 2.668 7.7954 5.688z" fill="#decd87" stroke="#28220b"/>
  <path d="m1144.8 322.63c0.3466 1.5701-0.2107 3.2924-1.2277 4.3795s-2.4764 1.5145-3.9179 0.65759c-2.6656-1.5845-5.3655-3.0608-8.0869-4.4716-1.452-0.75275-3.1421-1.4655-4.5714-2.3295s-2.5987-1.8747-3.0129-3.2672l-0.032-0.11376c-0.3799-1.4276 0.096-2.9615 1.0397-3.9773s2.3595-1.513 3.8613-0.81042c2.777 1.2991 5.5472 2.6234 8.3095 3.9779 1.3637 0.66871 2.9245 1.3196 4.2883 2.1221 1.6247 0.95407 2.9735 2.1258 3.3502 3.8326z" fill="#decd87" stroke="#28220b"/>
  <path d="m1143.6 332.81c0.061 1.4308-0.4809 3.1275-1.3701 4.5276-0.5704 0.56066-1.3377 0.94881-2.1775 1.0501s-1.7551-0.0843-2.5907-0.73283c-1.432-1.1115-2.8337-2.2773-4.2011-3.4886-0.9186-0.85686-1.89-1.613-2.8972-2.3021-1.2551-0.85873-2.7706-1.6244-4.0938-2.4331s-2.4698-1.636-2.889-2.9312c-0.069-0.17-0.1241-0.34492-0.1654-0.52548-0.3057-1.3365 0.2243-2.7431 1.2002-3.6782s2.4051-1.3822 3.8845-0.64326c2.7354 1.3663 5.4542 2.7822 8.1433 4.2903 1.6003 0.89744 3.4834 1.8026 4.9305 3.0062 1.2079 0.92837 2.1502 2.0615 2.2263 3.8606z" fill="#decd87" stroke="#28220b"/>
  <path d="m1141 342.17c0.1908 1.2391-0.4272 2.3669-1.4435 3.0868s-2.4531 1.06-3.9043 0.32193c-2.6834-1.3648-5.3075-2.9581-7.8545-4.7385-1.3774-0.96283-2.9776-1.9823-4.2327-3.2226s-2.1654-2.7168-2.1072-4.49c0.033-1.0116 0.3814-1.9971 0.918-2.8067 0.3983-0.17712 1.0836-0.49893 1.9464-0.66478s1.8985-0.13685 2.91 0.42693c2.0051 1.1176 3.9384 2.3627 5.6838 3.9646 0.5362 0.47702 1.0778 0.94705 1.6244 1.4096 1.2645 1.07 2.7911 2.1363 4.0422 3.2397s2.2266 2.234 2.4174 3.473z" fill="#decd87" stroke="#28220b"/>
  <path d="m1155.738,367.0314c-.7734,1.31881-1.8469,2.46365-2.968,3.25786s-2.2849,1.24202-3.2901,1.35882-1.8514-.0867-2.4234-.52524-.8701-1.10523-.856-1.98492c.052-3.25326-.4497-6.46874-1.7248-9.1486-.6193-1.30157-1.5575-2.60061-2.5856-3.6134-.5932-.59826-1.1926-1.09286-1.7106-1.47679s-.9563-.65358-1.1836-.8935c-.1906-.20129-.2088-.37659-.061-.57598s.4609-.42211.8887-.64482c.4458-.31554 1.0413-.57183 1.7308-.70886s1.4767-.15616 2.2993.11107c1.047.34013 2.0841.74909 3.1027,1.21802 1.7161.77923 3.4137,1.75696 4.9832,2.98087 1.3348,1.04095 2.838,2.2535 3.7915,3.91867 .4767.83259.8118,1.78104.8759,2.87398s-.143,2.33455-.7829,3.70307l-.086.14975z" fill="#decd87" stroke="#28220b"/>
  <path d="m1139.9 349.12c0.43 1.0685 0.084 2.1652-0.727 3.0194-0.4052 0.42707-0.9311 0.79146-1.5558 1.0172s-1.3502 0.31288-2.1419 0.13878c-2.9279-0.64386-5.8231-1.5916-8.6677-2.8016-1.5383-0.65439-3.3012-1.3346-4.7694-2.3299s-2.6461-2.3246-2.9233-4.1652 0.4359-3.7752 1.5692-4.8812 2.646-1.3933 3.9911-0.35598c2.4872 1.9181 5.0583 3.6648 7.6955 5.1985 1.4262 0.82942 3.1085 1.5938 4.5278 2.4128s2.5716 1.6787 3.0015 2.7472z" fill="#decd87" stroke="#28220b"/>
  <path d="m1143.2514,375.40091c-1.0856.76436-2.2869,1.03709-3.2857.9068-.8853-.0796-1.6457-.47287-2.2167-1.0869s-.9686-1.44848-.965-2.48918c.01-1.76132.1129-3.55157.2379-5.33891 .089-1.27711.1905-2.55893.274-3.8365 .1033-1.58141.083-3.34993.1724-4.93128s.2952-2.96324.6291-3.80441c.021-.0791.044-.15207.069-.21851 .1371-.36695.3138-.49112.5368-.44265s.4955.26204.8505.53907 .7995.6102 1.3188.98843 1.1202.80468 1.6315,1.39856c1.891,2.19625 2.9276,5.11541 3.3287,8.25966 .2229,1.7463.4364,3.76358.043,5.62006-.1626.8779-.4453,1.72635-.8788,2.48789s-1.0188,1.4359-1.746,1.94787z" fill="#decd87" stroke="#28220b"/>
  <path d="m1136.1101,377.98599-.068.15059c-.1711.53932-.6042.27661-1.3854-.21404-.3906-.24533-.8675-.54308-1.3899-.89819s-1.0947-.76996-1.5749-1.3479c-1.843-2.21855-2.9908-5.10564-3.4677-8.23565-.1838-1.20623-.361-2.53607-.314-3.87281 .019-1.1951.1975-2.3979.6425-3.49324 .445-1.09533 1.1618-2.08403 2.1498-2.78519 .86-.61025 1.809-.92321 2.6645-.96623 1.1112-.0981 2.076.23419 2.7876.86152s1.2039,1.54613 1.1796,2.72437c-.049,2.35668-.2572,4.7567-.4248,7.14186-.048.67852-.093,1.35761-.1319,2.03552-.094,1.65664-.044,3.51879-.1085,5.14924-.065,1.63046-.2509,3.01046-.5586,3.75015z" fill="#decd87" stroke="#28220b"/>
  <path d="m1102.4491,386.82955c-1.0195-1.66687-1.1387-3.83201-.5191-5.3384s1.9225-2.34521 3.5633-1.85881c3.0339.89941 6.0825,1.55715 9.0985,1.93237 1.631.20292 3.4694.23074 5.0797.38021s2.9805.40702 3.7721,1.09101 .8982,1.67703.5233,2.71916c-.1874.52107-.5015,1.05462-.9593,1.52829s-1.0617.88881-1.84,1.11103c-2.8782.82184-5.8848,1.26847-8.9729,1.38072-1.67.0607-3.5583.17368-5.3185-.15616s-3.4076-1.12261-4.4271-2.78942z" fill="#decd87" stroke="#28220b"/>
  <path d="m1100.7 364.39c-0.29-1.7847 0.4172-3.7178 1.5543-4.8534s2.6528-1.4547 4.0025-0.42629c2.4958 1.9016 5.1028 3.5956 7.7773 5.1044 1.4465 0.81597 3.1514 1.5693 4.5885 2.4098s2.6058 1.7559 3.0042 2.9715c0.1489 0.4545 0.1799 0.92047 0.1136 1.3774-0.077 0.9538-0.616 1.859-1.4527 2.4743s-1.9769 0.9488-3.2581 0.56234c-2.9136-0.87888-5.7994-1.9781-8.6102-3.2567l-0.087-0.0396c-1.522-0.68034-3.2659-1.37-4.7202-2.3361s-2.6248-2.22-2.912-3.9877z" fill="#decd87" stroke="#28220b"/>
  <path d="m1103.1 353.34c0.1194-1.8797 1.2675-3.7198 2.6439-4.6328 0.6883-0.45649 1.4274-0.68644 2.1173-0.62768s1.3284 0.40507 1.8555 1.0692c1.9495 2.4559 4.0892 4.6704 6.3758 6.6656 1.2366 1.079 2.7474 2.1355 4.0024 3.1996 1.2551 1.064 2.2577 2.1188 2.4963 3.3088s-0.3309 2.3373-1.3319 3.1007-2.4452 1.1385-3.9155 0.39771c-2.7188-1.3698-5.3862-2.9164-7.9587-4.6621-1.3912-0.9441-3.0016-1.943-4.2543-3.1877s-2.1501-2.7515-2.0308-4.6311z" fill="#decd87" stroke="#28220b"/>
  <path d="m1135.0664,378.92276c.182.24447.1784.46216-.0004.70866s-.5327.52038-1.0122.77436c-.9589.50795-2.3953.94182-3.8882.37434-2.7604-1.04932-5.5245-2.44938-7.9669-4.42381-1.1549-.93366-2.434-1.9955-3.3746-3.3683s-1.5514-3.07589-1.1564-5.24679c.1597-.62527.404-1.26664.7441-1.90544 .5016-.94231 1.1762-1.80533 1.932-2.50851s1.5914-1.24645 2.4107-1.60344c1.6387-.71398 3.1803-.67306 4.0846-.0743 .5403.37457.8655.9414.9402,1.68447 .01.10418.013.21198.012.32345-.03,3.26283.6026,6.44256 1.922,9.11358 .9064,1.83498 2.4054,3.67711 3.7772,4.75957 .7036.62446 1.3107,1.03543 1.5764,1.39218z" fill="#decd87" stroke="#28220b"/>
  <path d="m1140.4996,355.4237c.6769.83871.6401,1.96096.093,3.01575s-1.6279,2.0492-3.2524,2.12942c-3.0039.14832-6.0533.0406-9.1254-.37034-1.2924-.1729-2.7192-.3302-4.0848-.67948s-2.6725-.89344-3.6886-1.847c-.5613-.54019-1.021-1.20607-1.3248-2.01664-.6841-1.82505-.4062-3.98619.4639-5.36681s2.2844-1.98038 3.8018-1.22052c2.8057,1.40504 5.6688,2.56337 8.5714,3.4334 2.3515.70486 5.2226,1.09917 7.1016,1.9144 .6095.26864 1.1043.58683 1.4442,1.00782z" fill="#decd87" stroke="#28220b"/>
  <path d="m1142.8558,361.49436c.9328.7384 1.2196,1.96222.9444,3.18074s-1.1221,2.43722-2.7044,2.83749c-2.9258.74013-5.9427,1.30478-9.0281,1.64667-1.6685.1849-3.542.46763-5.3076.32675s-3.437-.71665-4.5754-2.24512-1.4606-3.70022-.9975-5.29956c.2316-.79967.6507-1.45611 1.2194-1.85583s1.2846-.54221 2.1199-.36676c3.0889.64884 6.1635.97662 9.201,1.03061 1.6428.0292 3.479-.13857 5.1194-.14037s3.076.14701 4.0089.88538z" fill="#decd87" stroke="#28220b"/>
  <path d="m1146.8374,367.58776c1.154.70381 1.8125,2.10003 1.8129,3.48919s-.6922,2.73106-2.2801,3.22489c-2.9363.91314-5.8552,1.84783-8.8162,2.69906-1.5709.45163-3.3027,1.06002-4.9924,1.30487s-3.3443.1268-4.7382-.94122c-.054-.0412-.1076-.0838-.1607-.12786-1.402-1.1635-2.1488-3.09755-2.0365-4.70357 .056-.803.3197-1.52167.782-2.04054s1.1214-.83711 1.9694-.88197c3.1363-.1659 6.2127-.57233 9.2064-1.17203 1.5113-.30276 3.1543-.79522 4.6815-1.10842 1.7474-.35741 3.3412-.49296 4.5719.2576z" fill="#decd87" stroke="#28220b"/>
  <path d="m1152.5531,374.59223c.5571.38609 1.0272.90306 1.391,1.49038 .738,1.13925 1.0915,2.67838.8637,3.90732-.1139.61447-.3703,1.14715-.7709,1.53054s-.9445.61688-1.6251.6802c-3.0552.28425-5.9589.99602-8.7963,1.79463l-.3068.0866c-1.5914.45169-3.3264,1.11387-4.9686,1.47921s-3.1879.44282-4.4692-.35744-2.071-2.36487-2.1209-3.84781 .6667-2.829 2.2901-3.2473c3.0018-.77347 5.9392-1.66971 8.8714-2.58371 1.5858-.49429 3.3223-1.18051 4.9957-1.5245s3.2859-.35073 4.6459.59187z" fill="#decd87" stroke="#28220b"/>
  <path d="m1159.1401,385.41415c.5795,1.02799.9432,2.29259 1.0579,3.59966s-.02,2.65018-.3437,3.79179c-.4574,1.44712-1.2337,2.44835-2.0254,2.8501s-1.5777.21265-2.3139-.52088c-1.002-.99846-2.1015-1.82582-3.256-2.46365-1.6707-.91406-3.4168-1.41086-5.1646-1.60011-1.1371-.12313-2.3862-.076-3.5659.0349s-2.2913.29429-3.1552.38104c-.7374.0387-1.3498.0152-1.8362-.23478-.3759-.19319-.6502-.51453-.8379-.94824s-.2873-.97907-.2788-1.56271c-.012-1.42936.6971-2.9545 2.4312-3.49243 1.1538-.35793 2.312-.70502 3.4782-1.03472 1.772-.50209 3.5691-.97206 5.4122-1.32656 1.3448-.25864 2.825-.57723 4.3153-.61421s2.9968.20551 4.3584,1.17431c.6431.46673 1.2383,1.10451 1.7244,1.96651z" fill="#decd87" stroke="#28220b"/>
  <path d="m1156.6115,403.94285c-.049.0943-.1.18822-.1528.28174-.8055,1.33262-1.9136,2.48239-3.0732,3.27558s-2.3651,1.23393-3.3983,1.34129-1.8922-.10801-2.4513-.55463-.8183-1.11702-.7567-1.99207c.2316-3.28903-.2514-6.52997-1.5667-9.18666-.5673-1.14588-1.4003-2.27956-2.3251-3.19865-.6973-.6575-1.4355-1.1805-2.0941-1.4991s-1.2381-.42611-1.5551-.33557c-.2219.0634-.2914.21272-.2218.36203 .1101.13209.3005.18406.5586.14045s.5834-.18071.9672-.3658c.7675-.37019 1.765-.93828 3.0082-1.05843 2.7691-.26764 5.6553.0827 8.3489,1.51178 .1374.0735.2741.14976.41.22865 1.5043.87349 3.181,2.02496 4.2579,3.80983 .5385.89244.9201,1.94552.9878,3.1647s-.1804,2.60997-.9435,4.07486z" fill="#decd87" stroke="#28220b"/>
  <path d="m1128.9281,412.51947c-.6222-.005-1.2482-.1069-1.8443-.28871-1.8035-.51046-3.3255-1.69231-3.9877-2.93826s-.4844-2.51089.6834-3.41158c2.5274-1.94927 4.7279-4.1672 6.5343-6.59648 .21-.28234.416-.57849.6183-.88305 .8479-1.26818 1.643-2.67957 2.39-3.86213s1.4311-2.13541 2.1286-2.50225c.7815-.411 1.4633-.0209 2.1079.79969 .3223.41028.6336.93064.8724,1.5439s.4062,1.32295.3484,2.1122c-.2137,2.91879-1.0078,5.87751-2.2815,8.74999-.6889,1.55345-1.4634,3.32849-2.6399,4.76138-.5882.71644-1.278,1.34534-2.0958,1.79724s-1.7657.72668-2.8341.71806z" fill="#decd87" stroke="#28220b"/>
  <path d="m1142.6521,412.53057c-1.0685.48791-2.2726.71778-3.3994.69994s-2.1739-.28116-2.9832-.71195-1.3813-1.02457-1.6269-1.68873-.1659-1.39467.274-2.15c1.6268-2.79334 2.8117-5.72048 3.4538-8.65524 .3376-1.54288.4679-3.29982.5591-4.83233s.1217-2.82554.2897-3.56655c0-.0403.01-.0782.016-.11352 .051-.31652.1381-.38909.2925-.29614s.3784.34395.7049.64613 .7608.64787 1.2805,1.02568 1.1315.79081 1.662,1.36682c1.962,2.1302 3.0486,5.04615 3.3775,8.21168 .1718,1.65404.3046,3.55522-.1396,5.33902-.2202.94662-.5985,1.86599-1.2068,2.68426s-1.449,1.53653-2.5537,2.04093z" fill="#decd87" stroke="#28220b"/>
  <path d="m1138.2753,399.00784c.868,1.12254.9955,2.65841.5078,3.92972s-1.5986,2.27617-3.2531,2.22407c-3.0592-.0963-6.125-.24363-9.1981-.46019-1.662-.11712-3.5362-.13476-5.2266-.46639s-3.2002-.98083-4.1017-2.35837c-1.3131-2.00669-.9059-4.96093.7155-6.13009 .5582-.40045 1.2585-.59657 2.0738-.50048l.1966.0293c3.056.53697 6.1049.96555 9.1477,1.30401 1.6456.18305 3.5037.23518 5.1604.51731s3.1097.78864 3.9777,1.91113z" fill="#decd87" stroke="#28220b"/>
  <path d="m1136.0121,391.00122c.06.0944.1157.19126.1658.2904 .6074,1.14486.5313,2.55878-.073,3.68785s-1.7479,1.97354-3.3239,1.83231c-3.0374-.27221-6.0806-.62767-9.1305-1.08466-1.1474-.17192-2.4012-.3082-3.619-.53854-2.2887-.42267-4.4801-1.1681-5.5005-3.22761-.7823-1.57899-.6771-3.63953.071-5.08101 .3739-.72074.902-1.2831 1.5318-1.57656s1.3591-.31762 2.1514-.0134c2.93,1.12519 5.9025,1.96222 8.8904,2.61288 1.6158.35188 3.4605.56926 5.08.96859s3.0129.96803 3.7572,2.12972z" fill="#decd87" stroke="#28220b"/>
  <path d="m1100.3849,375.39215c-.5463-1.65486-.2195-3.5433.6163-4.82123 .873-1.3937 2.3758-2.07535 3.9808-1.27617 .9867.49135 1.9774.96128 2.9701,1.41077 1.8216.83705 3.6752,1.59897 5.548,2.27458 1.5613.56322 3.3695,1.02054 4.9311,1.58665s2.8721,1.2296 3.4857,2.23815 .4348,2.18409-.244,3.18051c-.3394.49822-.8071.95104-1.39,1.28049s-1.2828.53624-2.0892.49456c-2.9824-.15417-6.015-.60609-9.0509-1.31492-1.6418-.38335-3.5137-.75042-5.1459-1.47497s-3.0329-1.82456-3.612-3.57842z" fill="#decd87" stroke="#28220b"/>
  <path d="m1134.7544,383.69258c.5512.99532.3478,2.22255-.3751,3.24799s-1.9848,1.81726-3.6041,1.53488c-2.9943-.52215-5.9832-1.19241-8.9397-2.11256-1.5989-.49763-3.4223-.99094-4.978-1.85309s-2.854-2.10857-3.2769-4.0954c0-.016-.01-.0321-.01-.0482-.2311-1.02948-.1673-2.17637.1448-3.25414s.8692-2.08008 1.5325-2.816 1.4249-1.20072 2.1411-1.28839 1.3806.20019 1.9615.85902c2.1568,2.44635 4.7572,4.23375 7.4756,5.58586 1.2434.61844 2.6832,1.1361 3.9726,1.65309 .8904.36655 1.7232.73518 2.4101,1.14718s1.2277.86534 1.5457,1.43973z" fill="#decd87" stroke="#28220b"/>
  <path d="m1108.082,342.56497c.1747-.53351.4271-1.04778.737-1.5229 .9817-1.48788 2.544-2.52531 3.9297-2.74637 .6928-.11054 1.3397-.0252 1.8667.26454s.9333.78274 1.1844,1.48239c1.0802,3.00914 2.4988,5.80933 4.1681,8.33907 .2175.32956.4517.66071.695.99137 .8841,1.21178 1.8838,2.42198 2.6568,3.5479s1.3235,2.15453 1.3096,3.11608c-.016,1.09326-.7603,1.95316-1.8536,2.42213s-2.5586.53583-3.8517-.45366c-2.3909-1.82964-4.6513-3.8701-6.7377-6.14357-1.1283-1.22951-2.446-2.57753-3.3462-4.11328s-1.3813-3.28026-.7581-5.1837z" fill="#decd87" stroke="#28220b"/>
  <path d="m1116.6514,333.10823c.683-.81317 1.5992-1.46733 2.5743-1.89635 .975-.42902 2.0052-.63245 2.9113-.5985s1.6844.30302 2.2037.77904 .7779,1.15513.7291,2.01682c-.1803,3.18667.1249,6.28301.8281,9.2275 .3803,1.5924 1.0361,3.31199 1.5413,4.84825s.8783,2.87132.6145,3.82991c-.1412.51339-.4577.87541-.9024,1.11446s-1.0184.35683-1.6517.34579c-1.1188.00075-2.4175-.37168-3.3368-1.54769-.4255-.54433-.8397-1.1019-1.2419-1.67298-1.3359-1.8771-2.5315-3.9186-3.5473-6.09668-.7157-1.53478-1.5622-3.25886-1.9082-5.04889s-.1798-3.67441 1.186-5.30068z" fill="#decd87" stroke="#28220b"/>
  <path d="m1128.8477,327.23613c.088-.0443.1781-.0868.2689-.12764 1.0618-.47427 2.2633-.68735 3.3984-.64622s2.1998.33375 3.0212.78837 1.3978,1.06533 1.6326,1.72837 .1288,1.37335-.3354,2.09893c-1.7546,2.74222-2.9254,5.7103-3.5313,8.67113-.2541,1.24193-.3684,2.61979-.4462,3.89652-.071,1.01105-.1249,1.96482-.2215,2.76815s-.2324,1.45398-.5187,1.89627c-.4675.72246-1.3045.80001-2.3223.44071-.5089-.17965-1.0541-.47664-1.551-.9141s-.9465-1.01769-1.2153-1.77936c-.9937-2.8168-1.6226-5.80838-1.7989-8.91321-.095-1.67911-.2206-3.58311.1871-5.37619s1.3727-3.50131 3.4324-4.53173z" fill="#decd87" stroke="#28220b"/>
  <path d="m1143.5569,327.76017c1.6026.21273 3.2417.99218 4.4745,2.0244s2.0473,2.29518 2.2287,3.35853c.1754,1.18368-.3633,2.05709-1.5547,2.46773l-.5775.20857c-2.9206,1.13858-5.323,2.82637-7.223,4.87092-1.0953,1.17862-2.0862,2.69725-2.9047,4.0372-.4093.66998-.7746,1.29666-1.1024,1.815s-.6161.92817-.9091,1.1594c-.4768.37617-.9253.21187-1.4324-.31095s-1.0832-1.38425-1.4105-2.46327c-.071-.23254-.1286-.47624-.1652-.73069-.042-.28623-.059-.58586-.04-.89782 .1772-2.9187.9117-5.9321 2.2225-8.8071 .7088-1.55482 1.5277-3.32204 2.8199-4.6944 .6461-.68618 1.4125-1.27081 2.3352-1.64961s2.0046-.55174 3.239-.38791z" fill="#decd87" stroke="#28220b"/>
  <path d="m1156.4101,337.42971c1.1132,1.17292 1.8842,2.75462 2.1861,4.27885 .2987,1.69534.054,3.20578-.5575,4.12596s-1.5608,1.25549-2.7268.89295c-2.2192-.69003-4.4535-1.0805-6.6423-1.10816-.8814-.0111-1.7524.039-2.6062.14804-1.6083.20534-3.3513.74711-4.7964,1.30004s-2.5649,1.14436-3.0585,1.35757l-.1751.0644c-.1101-.019-.1411-.15314-.1545-.40376s-.01-.61775.013-1.07723 .065-1.01112.19-1.60915c.1246-.59803.333-1.2448.7312-1.85947 1.5886-2.45228 3.7405-4.58665 6.4747-6.17003 .8185-.47399 1.7157-.96893 2.6962-1.36982 1.2696-.50492 2.6677-.83987 4.1257-.70359s2.991.75388 4.3003,2.13344z" fill="#decd87" stroke="#28220b"/>
  <path d="m1160.4685,352.00189c.1791.85419.184,1.74557.04,2.58161-.1921,1.84706-1.1848,3.61854-2.342,4.49631-.5786.43889-1.188.66061-1.7565.62718s-1.0943-.32084-1.5714-.85364c-2.1715-2.42492-4.822-4.16863-7.524-5.41712l-.071-.033c-1.488-.691-3.2505-1.24176-4.7645-1.73471s-2.7701-.9065-3.3156-1.34182c-.3651-.29136-.376-.55956-.1737-.89412 .2398-.31258.6921-.78207 1.2909-1.31829s1.3477-1.14563 2.3439-1.47331c1.796-.59071 3.7256-.89602 5.7097-.88982 1.0753.004 2.1619.0959 3.2527.26877 1.6791.26618 3.5925.60391 5.2729,1.47167 .8401.43387 1.6198,1.00184 2.2542,1.74579s1.1235,1.66606 1.3538,2.76447z" fill="#decd87" stroke="#28220b"/>
  <path d="m1141.1813,407.13354c.6309.75332.9324,1.71423.9341,2.66599 .2755.9611.3731,1.60092.3439,1.98163-.01.67512-.104,1.18127-.2624,1.5668-.3181.77428-.8026,1.31312-1.3921,1.60575s-1.2829.34201-2.054.0894c-.7488-.24525-1.5008-.48119-2.2554-.69577-.7041-.20132-1.4201-.41388-2.1395-.57934-.5079-.10976-1.0385-.2412-1.5591-.28046-1.086-.0141-2.1731-.0319-3.2611-.0545-3.329-.0688-7.5004.34105-9.4426-2.20624-.9711-1.27369-1.1797-3.0402-.7116-4.43138s1.6067-2.39182 3.2721-2.24478c3.0795.27188 6.1512.46765 9.2161.60559 3.315.14919 7.4315-.26761 9.3116,1.97722z" fill="#decd87" stroke="#28220b"/>
  <path d="m1143.7904,418.96129c.3765.95292.4147,1.98991.1916,2.91403s-.7064,1.73753-1.3664,2.28323c-.8028.66845-1.8678.94348-3.0565.52464l-.8528-.29978c-2.6201-.91506-5.2446-1.82846-7.8748-2.68546-2.748-.89539-6.1896-1.57186-7.8476-3.28733-.2463-.25679-.4503-.51673-.6051-.76856-.1764-.28698-.279-.54487-.3214-.76387-.028-.13492-.01-.16731.055-.10824 .016-.004.1639.27172.4093.78409-.1694-2.08384 1.0225-4.14658 3.336-4.07583 2.2056.0674 4.4069.11247 6.6042.14177 .5115.0146 1.0372.13044 1.5442.23374 .3684.0793.7362.17187 1.1022.2699l1.0672.27975c.9149.23236 1.8646.49325 2.7769.81856s1.7871.71736 2.5446,1.17732c1.0271.62852 1.8558,1.45562 2.293,2.56204z" fill="#decd87" stroke="#28220b"/>
  <path d="m1144.3664,428.48828c1.0936,2.90806-1.2521,6.63162-4.3727,5.47338-2.8851-1.07084-5.7728-2.12681-8.6636-3.16316-3.1267-1.12094-7.1836-1.9994-8.2929-4.76306-.097-.24107-.168-.48837-.2152-.73835-.2495-1.31889.1593-2.66273.9813-3.5791s2.0627-1.42922 3.5043-.99147c2.9203.88677 5.8334,1.87084 8.7406,2.87764 .7691.26634 1.5936.52026 2.4166.79315 2.5426.84648 5.0755,1.89424 5.9016,4.09097z" fill="#decd87" stroke="#28220b"/>
  <path d="m1144.7 437.82c1.049 2.8991-1.3367 6.5668-4.4446 5.3811-2.8734-1.0962-5.7481-2.1859-8.6247-3.2643-3.1113-1.1664-7.1577-2.1141-8.2173-4.9227-0.5298-1.4043-0.2136-3.0012 0.6231-4.1158s2.1964-1.7508 3.7609-1.1988c2.8929 1.0207 5.7827 2.0628 8.6697 3.1216 3.1227 1.1452 7.1838 2.0999 8.2329 4.9989z" fill="#decd87" stroke="#28220b"/>
  <path d="m1145 447.07c0.2499 0.70197 0.2966 1.4489 0.1794 2.1594-0.3634 2.2111-2.3086 4.0732-4.6553 3.1684-2.4908-0.96036-4.9822-1.9176-7.4741-2.8717l-1.1335-0.43396c-3.1042-1.188-7.1465-2.1742-8.1777-5.0191s1.3369-6.4513 4.4497-5.295c2.8779 1.0691 5.7538 2.1512 8.6283 3.2417 3.109 1.1795 7.1572 2.1686 8.1832 5.0502z" fill="#decd87" stroke="#28220b"/>
  <path d="m1145.2 456.29c1.016 2.8848-1.3967 6.519-4.4949 5.312-2.8644-1.1159-5.7295-2.2282-8.5953-3.3367-3.0997-1.1989-7.139-2.1951-8.1587-5.0537-0.4113-1.1533-0.2671-2.4288 0.2548-3.4637 0.7715-1.5336 2.3701-2.5378 4.2222-1.831l4.2469 1.6238c1.4543 0.5567 2.9084 1.1145 4.3623 1.6734 3.1032 1.1928 7.1467 2.1912 8.1627 5.0759z" fill="#decd87" stroke="#28220b"/>
  <path d="m1145.4 465.5c1.0062 2.8869-1.418 6.5118-4.5124 5.2952-2.8608-1.1248-5.7223-2.2463-8.5844-3.3644-3.0956-1.2094-7.1316-2.2198-8.1411-5.0834s1.3961-6.4741 4.4964-5.2785c2.8663 1.1054 5.7319 2.2148 8.5969 3.3279 3.0987 1.204 7.1384 2.2163 8.1446 5.1031z" fill="#decd87" stroke="#28220b"/>
  <path d="m1145.5 474.71c0.9975 2.8886-1.4368 6.5052-4.5277 5.2803l-8.5748-3.3888c-3.0921-1.2186-7.1252-2.2417-8.1256-5.1097s1.4175-6.472 4.5137-5.2656c2.8625 1.1154 5.7244 2.2344 8.5857 3.3567 3.0948 1.2139 7.1312 2.2386 8.1287 5.1271z" fill="#decd87" stroke="#28220b"/>
  <path d="m1145.7 483.92c0.9899 2.8899-1.453 6.499-4.541 5.2671-2.855-1.139-5.7105-2.2756-8.5665-3.4096-3.089-1.2266-7.1196-2.2606-8.112-5.1328s1.4362-6.4706 4.5288-5.2544c2.8592 1.1243 5.7179 2.2518 8.576 3.382 3.0913 1.2225 7.1247 2.258 8.1147 5.1478z" fill="#decd87" stroke="#28220b"/>
  <path d="m1145.8 493.12c0.9835 2.8907-1.4665 6.4934-4.5521 5.2557-2.8528-1.1443-5.7059-2.2868-8.5595-3.4271-3.0865-1.2334-7.1149-2.2768-8.1006-5.1526s1.4525-6.4696 4.5419-5.2451l8.5675 3.4039c3.0884 1.23 7.1193 2.2746 8.1028 5.1652z" fill="#decd87" stroke="#28220b"/>
  <path d="m1145.9 502.32c0.9783 2.8912-1.4774 6.4884-4.561 5.2462-2.851-1.1485-5.7023-2.2956-8.5539-3.441-3.0843-1.2389-7.111-2.29-8.0911-5.1692s1.4661-6.4692 4.5528-5.2376l8.5604 3.4224c3.0859 1.2361 7.1146 2.2882 8.0928 5.1793z" fill="#decd87" stroke="#28220b"/>
  <path d="m1145.9 511.51c0.9742 2.8912-1.4857 6.484-4.5679 5.2384l-8.5495-3.4515c-3.0827-1.2432-7.1081-2.3004-8.0837-5.1824s1.477-6.4693 4.5616-5.2319c2.8518 1.1441 5.7033 2.2899 8.5545 3.4373 3.0839 1.241 7.1108 2.299 8.085 5.1902z" fill="#decd87" stroke="#28220b"/>
  <path d="m1146 520.7c0.9713 2.8909-1.4914 6.48-4.5726 5.2324l-8.5465-3.4586c-3.0815-1.2462-7.106-2.3079-8.0782-5.1924s1.4854-6.47 4.5682-5.2279l8.5501 3.4488c3.0823 1.2447 7.1078 2.307 8.079 5.1977z" fill="#decd87" stroke="#28220b"/>
  <path d="m1146.1 529.89c0.2988 0.8908 0.2714 1.8478 3e-4 2.709-0.6084 1.9337-2.4446 3.3841-4.5756 2.5198l-6.0753-2.4626-2.4694-1.0004c-3.0808-1.2479-7.1048-2.3125-8.0748-5.1991s1.4911-6.4712 4.5727-5.2258l8.5469 3.4569c3.0812 1.2472 7.1057 2.312 8.0752 5.202z" fill="#decd87" stroke="#28220b"/>
  <path d="m1146.1 539.07c0.9678 2.8915-1.499 6.4781-4.5787 5.2268l-8.5423-3.4686c-3.08-1.2498-7.1033-2.3162-8.0718-5.2028-0.3233-0.96366-0.2642-2.0048 0.073-2.9181 0.6721-1.8233 2.4504-3.1369 4.5028-2.3058l5.5591 2.2517 2.9858 1.2099c3.0807 1.2487 7.1047 2.3155 8.0725 5.2069z" fill="#decd87" stroke="#28220b"/>
  <path d="m1146.1 548.26c0.9659 2.8921-1.5032 6.4769-4.582 5.2236l-8.5401-3.4741c-3.0792-1.2518-7.1017-2.3209-8.0683-5.2083s1.4987-6.4695 4.5788-5.2204c2.8477 1.1549 5.6953 2.3105 8.5427 3.4669 3.0797 1.2507 7.103 2.3202 8.0689 5.2122z" fill="#decd87" stroke="#28220b"/>
  <path d="m1146.2 557.44c0.964 2.8926-1.5073 6.4758-4.5854 5.2206l-8.5379-3.4795c-3.0783-1.2538-7.1002-2.3254-8.0649-5.2135s1.5029-6.4687 4.5822-5.2174c2.8469 1.1568 5.6937 2.3143 8.5404 3.4725 3.079 1.2527 7.1016 2.3248 8.0656 5.2173z" fill="#decd87" stroke="#28220b"/>
  <path d="m1146.2 566.63c0.9622 2.8932-1.5112 6.4748-4.5886 5.2177l-8.5357-3.4847c-3.0776-1.2556-7.0988-2.3298-8.0617-5.2186s1.507-6.4679 4.5855-5.2147l8.5381 3.478c3.0782 1.2547 7.1001 2.3292 8.0624 5.2222z" fill="#decd87" stroke="#28220b"/>
  <path d="m1146.2 575.81c0.9605 2.8936-1.515 6.4737-4.5916 5.2149l-8.5337-3.4896c-3.0769-1.2575-7.0974-2.3341-8.0586-5.2235s1.511-6.4671 4.5887-5.212l8.536 3.4832c3.0774 1.2565 7.0987 2.3335 8.0592 5.227z" fill="#decd87" stroke="#28220b"/>
  <path d="m1146.3 585c0.9589 2.8941-1.5186 6.4727-4.5945 5.2122-2.8438-1.1654-5.6877-2.3302-8.5318-3.4944-3.0761-1.2592-7.0961-2.3381-8.0556-5.2282s1.5148-6.4663 4.5917-5.2094c2.8448 1.1621 5.6895 2.3248 8.534 3.4882 3.0767 1.2583 7.0973 2.3376 8.0562 5.2316z" fill="#decd87" stroke="#28220b"/>
  <path d="m1146.3 594.18c0.9572 2.8946-1.5222 6.4718-4.5974 5.2096l-8.5299-3.499c-3.0754-1.2609-7.0948-2.342-8.0527-5.2327s1.5184-6.4656 4.5947-5.2069l8.532 3.493c3.076 1.26 7.096 2.3415 8.0533 5.236z" fill="#decd87" stroke="#28220b"/>
  <path d="m1146.3 603.37c0.9557 2.895-1.5255 6.4708-4.6001 5.2071l-8.528-3.5034c-3.0748-1.2625-7.0937-2.3458-8.05-5.237s1.5219-6.465 4.5975-5.2045l8.5301 3.4977c3.0753 1.2617 7.0947 2.3453 8.0505 5.2402z" fill="#decd87" stroke="#28220b"/>
  <path d="m1146.3 612.55c0.9543 2.8954-1.5287 6.4699-4.6027 5.2047l-8.5263-3.5076c-3.0742-1.2641-7.0925-2.3494-8.0473-5.2412s1.5253-6.4643 4.6002-5.2022l8.5283 3.5022c3.0746 1.2633 7.0935 2.3489 8.0478 5.2442z" fill="#decd87" stroke="#28220b"/>
  <path d="m1146.3 621.74c0.9529 2.8958-1.5318 6.4691-4.6052 5.2025l-8.5246-3.5116c-3.0736-1.2655-7.0914-2.3528-8.0448-5.2452s1.5285-6.4637 4.6027-5.2001l8.5266 3.5064c3.074 1.2648 7.0924 2.3523 8.0453 5.248z" fill="#decd87" stroke="#28220b"/>
  <path d="m1146.3 630.92c0.9516 2.8962-1.5346 6.4682-4.6074 5.2003l-8.5231-3.5155c-3.073-1.2669-7.0903-2.3561-8.0424-5.249s1.5315-6.4631 4.6052-5.198l8.5249 3.5105c3.0734 1.2662 7.0913 2.3556 8.0428 5.2517z" fill="#decd87" stroke="#28220b"/>
  <path d="m1146.3 640.1c0.9504 2.8965-1.5374 6.4674-4.6097 5.1982l-8.5216-3.5191c-3.0725-1.2683-7.0893-2.3592-8.0401-5.2526s1.5345-6.4626 4.6076-5.196l8.5233 3.5144c3.0729 1.2676 7.0902 2.3588 8.0405 5.2551z" fill="#decd87" stroke="#28220b"/>
  <path d="m1146.3 649.29c0.9491 2.8968-1.5401 6.4667-4.6118 5.1962l-8.5202-3.5225c-3.072-1.2695-7.0884-2.3621-8.038-5.256s1.5373-6.4621 4.6099-5.1942c2.8407 1.1722 5.6813 2.3449 8.5218 3.518 3.0723 1.2689 7.0892 2.3617 8.0383 5.2584z" fill="#decd87" stroke="#28220b"/>
  <path d="m1146.2 658.47c0.948 2.8971-1.5425 6.466-4.6138 5.1943l-8.5189-3.5258c-3.0714-1.2707-7.0874-2.3649-8.0359-5.2592s1.54-6.4616 4.612-5.1924l8.5204 3.5215c3.0718 1.2701 7.0882 2.3645 8.0362 5.2615z" fill="#decd87" stroke="#28220b"/>
  <path d="m1146.2 667.65c0.947 2.8974-1.5448 6.4652-4.6157 5.1926l-8.5176-3.5288c-3.071-1.2719-7.0866-2.3676-8.0339-5.2623s1.5424-6.4612 4.6139-5.1908l8.519 3.5248c3.0714 1.2713 7.0874 2.3672 8.0343 5.2645z" fill="#decd87" stroke="#28220b"/>
  <path d="m1146.2 676.84c0.9459 2.8976-1.5471 6.4646-4.6175 5.1909l-8.5164-3.5316c-3.0706-1.2729-7.0858-2.37-8.0321-5.2652s1.5447-6.4608 4.6158-5.1892l8.5177 3.5279c3.0709 1.2724 7.0865 2.3697 8.0325 5.2672z" fill="#decd87" stroke="#28220b"/>
  <path d="m1146.2 686.02c0.945 2.8979-1.5491 6.464-4.6191 5.1894l-8.5154-3.5343c-3.0701-1.2739-7.085-2.3723-8.0304-5.2679s1.5469-6.4604 4.6176-5.1878l8.5166 3.5308c3.0704 1.2734 7.0857 2.372 8.0307 5.2698z" fill="#decd87" stroke="#28220b"/>
  <path d="m1146.1 695.2c0.9441 2.8981-1.551 6.4634-4.6206 5.1879l-8.5143-3.5368c-3.0698-1.2748-7.0844-2.3744-8.0288-5.2704s1.5489-6.4601 4.6191-5.1864l8.5155 3.5336c3.0701 1.2743 7.085 2.3742 8.0291 5.2721z" fill="#decd87" stroke="#28220b"/>
  <path d="m1146.1 704.38c0.9433 2.8983-1.5527 6.4628-4.622 5.1865l-8.5134-3.539c-3.0694-1.2757-7.0837-2.3764-8.0273-5.2727s1.5508-6.4598 4.6206-5.1852l8.5145 3.5361c3.0697 1.2752 7.0843 2.3762 8.0276 5.2743z" fill="#decd87" stroke="#28220b"/>
  <path d="m1146.1 713.57c0.9426 2.8984-1.5543 6.4623-4.6233 5.1853l-8.5124-3.5411c-3.0692-1.2764-7.0832-2.3783-8.0261-5.2748s1.5526-6.4595 4.6221-5.184l8.5135 3.5384c3.0694 1.276 7.0836 2.378 8.0262 5.2763z" fill="#decd87" stroke="#28220b"/>
  <path d="m1146 722.75c0.9419 2.8986-1.5558 6.4618-4.6245 5.1841l-8.5117-3.543c-3.0688-1.2771-7.0826-2.3799-8.0248-5.2768s1.5542-6.4592 4.6234-5.183l8.5126 3.5405c3.069 1.2768 7.083 2.3797 8.025 5.2782z" fill="#decd87" stroke="#28220b"/>
  <path d="m1146 731.93c0.9413 2.8987-1.5571 6.4613-4.6256 5.1831l-8.5109-3.5447c-3.0686-1.2778-7.0821-2.3814-8.0237-5.2786s1.5556-6.459 4.6245-5.1821l8.5118 3.5425c3.0688 1.2774 7.0825 2.3812 8.0239 5.2798z" fill="#decd87" stroke="#28220b"/>
  <path d="m1146 741.11c0.9408 2.8988-1.5582 6.4609-4.6264 5.1822l-8.5104-3.5462c-3.0683-1.2784-7.0816-2.3828-8.0226-5.2802s1.5569-6.4589 4.6256-5.1813l8.511 3.5442c3.0685 1.278 7.0821 2.3826 8.0228 5.2813z" fill="#decd87" stroke="#28220b"/>
  <path d="m1145.9 750.29c0.9403 2.8989-1.5592 6.4605-4.6272 5.1813-2.8366-1.1826-5.6732-2.3652-8.5098-3.5475-3.0682-1.2788-7.0813-2.3839-8.0218-5.2816s1.5581-6.4587 4.6265-5.1805l8.5104 3.5458c3.0683 1.2786 7.0816 2.3838 8.0219 5.2825z" fill="#decd87" stroke="#28220b"/>
  <path d="m1145.9 759.47c0.9399 2.8989-1.5601 6.4601-4.628 5.1806l-8.5093-3.5486c-3.0679-1.2793-7.0809-2.385-8.021-5.2828s1.5591-6.4586 4.6273-5.1799l8.5099 3.5471c3.068 1.279 7.0812 2.3848 8.0211 5.2836z" fill="#decd87" stroke="#28220b"/>
  <path d="m1145.8 768.65c0.9395 2.899-1.5608 6.4598-4.6286 5.18l-8.5089-3.5495c-3.0678-1.2796-7.0806-2.3858-8.0203-5.2839s1.56-6.4586 4.628-5.1794l8.5093 3.5483c3.0679 1.2794 7.0809 2.3857 8.0205 5.2845z" fill="#decd87" stroke="#28220b"/>
  <path d="m1145.8 777.83 0.043 0.14279c0.814 2.8717-1.655 6.2963-4.6724 5.0369l-8.5085-3.5506c-1.2216-0.5097-2.5931-0.9919-3.8608-1.5707-1.9155-0.87467-3.5937-1.9699-4.159-3.714-0.9394-2.8983 1.5607-6.4585 4.6285-5.179l8.509 3.5493c3.0677 1.2798 7.0806 2.3864 8.0199 5.2853z" fill="#decd87" stroke="#28220b"/>
  <path d="m1145.7 787.01c0.9388 2.8994-1.5626 6.4598-4.63 5.179l-8.5078-3.552c-3.0675-1.2804-7.0801-2.3876-8.019-5.2857s1.5614-6.4579 4.6291-5.1781l8.5086 3.5502c3.0676 1.2802 7.0803 2.3874 8.0191 5.2867z" fill="#decd87" stroke="#28220b"/>
  <path d="m1145.7 796.19c0.9383 2.8995-1.5637 6.4595-4.6308 5.1782l-8.5073-3.5534c-3.0673-1.2809-7.0796-2.3888-8.0181-5.287s1.5625-6.4576 4.63-5.1774l8.5079 3.5516c3.0674 1.2807 7.08 2.3886 8.0183 5.288z" fill="#decd87" stroke="#28220b"/>
  <path d="m1145.6 805.37c0.9378 2.8997-1.5647 6.4592-4.6317 5.1774-2.8355-1.1851-5.6711-2.37-8.5067-3.5548-3.067-1.2814-7.0792-2.3899-8.0173-5.2884s1.5636-6.4574 4.6309-5.1766l8.5074 3.553c3.0672 1.2812 7.0795 2.3898 8.0174 5.2894z" fill="#decd87" stroke="#28220b"/>
  <path d="m1145.6 814.55c0.9373 2.8998-1.5658 6.459-4.6325 5.1766l-8.5062-3.5561c-3.0668-1.282-7.0788-2.3911-8.0164-5.2897s1.5647-6.4572 4.6317-5.1759l8.5068 3.5544c3.067 1.2817 7.0792 2.3909 8.0166 5.2906z" fill="#decd87" stroke="#28220b"/>
  <path d="m1145.5 823.73c0.9369 2.9-1.5668 6.4587-4.6333 5.1759l-8.5056-3.5575c-3.0666-1.2824-7.0785-2.3922-8.0156-5.291s1.5657-6.4569 4.6326-5.1751l8.5062 3.5557c3.0668 1.2822 7.0788 2.392 8.0157 5.2919z" fill="#decd87" stroke="#28220b"/>
  <path d="m1145.5 832.91c0.9364 2.9001-1.5678 6.4584-4.6342 5.1752l-8.505-3.5588c-3.0664-1.2829-7.0781-2.3933-8.0147-5.2922s1.5667-6.4567 4.6333-5.1744l8.5057 3.5571c3.0666 1.2826 7.0784 2.3931 8.0149 5.2932z" fill="#decd87" stroke="#28220b"/>
  <path d="m1145.4 842.09c0.936 2.9002-1.5688 6.4582-4.6349 5.1745l-8.5045-3.5601c-3.0662-1.2834-7.0777-2.3944-8.0139-5.2935s1.5677-6.4565 4.6342-5.1737l8.5051 3.5584c3.0663 1.2831 7.078 2.3942 8.014 5.2944z" fill="#decd87" stroke="#28220b"/>
  <path d="m1145.4 851.28c0.9356 2.9004-1.5698 6.458-4.6357 5.1738l-8.504-3.5614c-3.066-1.2838-7.0773-2.3955-8.0131-5.2947s1.5687-6.4562 4.635-5.173l8.5045 3.5597c3.0662 1.2836 7.0777 2.3953 8.0133 5.2956z" fill="#decd87" stroke="#28220b"/>
  <path d="m1145.3 860.46c0.9351 2.9005-1.5707 6.4577-4.6365 5.1731l-8.5034-3.5626c-3.0659-1.2843-7.077-2.3965-8.0124-5.2959s1.5697-6.456 4.6358-5.1723l8.504 3.561c3.066 1.2841 7.0773 2.3964 8.0125 5.2968z" fill="#decd87" stroke="#28220b"/>
  <path d="m1145.3 869.64c0.9347 2.9006-1.5717 6.4574-4.6372 5.1724l-8.503-3.5639c-3.0656-1.2847-7.0766-2.3976-8.0115-5.2971s1.5706-6.4558 4.6365-5.1716l8.5035 3.5623c3.0658 1.2845 7.077 2.3974 8.0117 5.2979z" fill="#decd87" stroke="#28220b"/>
  <path d="m1145.2 878.82c0.9343 2.9008-1.5726 6.4572-4.638 5.1717l-8.5024-3.5651c-3.0655-1.2852-7.0763-2.3986-8.0108-5.2982s1.5716-6.4556 4.6373-5.171l8.503 3.5635c3.0656 1.285 7.0766 2.3984 8.0109 5.2991z" fill="#decd87" stroke="#28220b"/>
  <path d="m1145.1 888c0.9339 2.9009-1.5735 6.457-4.6387 5.171l-8.5019-3.5663c-3.0653-1.2856-7.076-2.3996-8.0101-5.2994s1.5725-6.4554 4.638-5.1703l8.5025 3.5647c3.0654 1.2854 7.0763 2.3994 8.0102 5.3002z" fill="#decd87" stroke="#28220b"/>
  <path d="m1145.1 897.18c0.9335 2.901-1.5744 6.4568-4.6394 5.1704l-8.5015-3.5674c-3.0651-1.286-7.0756-2.4006-8.0092-5.3005s1.5734-6.4552 4.6387-5.1697l8.5019 3.5659c3.0653 1.2858 7.076 2.4004 8.0095 5.3013z" fill="#decd87" stroke="#28220b"/>
  <path d="m1145 906.36c0.9331 2.9011-1.5752 6.4565-4.6401 5.1697l-8.5009-3.5686c-3.065-1.2865-7.0753-2.4015-8.0086-5.3016s1.5743-6.455 4.6394-5.1691l8.5015 3.5671c3.0651 1.2862 7.0756 2.4014 8.0087 5.3024z" fill="#decd87" stroke="#28220b"/>
  <path d="m1144.9 915.54c0.9327 2.9012-1.5761 6.4563-4.6408 5.1691l-8.5004-3.5697c-3.0648-1.2869-7.075-2.4025-8.0079-5.3027s1.5752-6.4548 4.6401-5.1684l8.501 3.5682c3.0649 1.2866 7.0753 2.4023 8.008 5.3035z" fill="#decd87" stroke="#28220b"/>
  <path d="m1144.9 924.72c0.9323 2.9014-1.577 6.4561-4.6415 5.1685l-8.5-3.5708c-3.0646-1.2873-7.0747-2.4034-8.0071-5.3038s1.576-6.4546 4.6408-5.1678l8.5005 3.5694c3.0647 1.287 7.075 2.4033 8.0073 5.3045z" fill="#decd87" stroke="#28220b"/>
  <path d="m1144.8 933.9c0.9319 2.9015-1.5778 6.4558-4.6422 5.1679l-8.4995-3.5719c-3.0644-1.2877-7.0744-2.4043-8.0065-5.3048s1.5769-6.4544 4.6415-5.1672l8.5001 3.5705c3.0645 1.2874 7.0746 2.4042 8.0066 5.3056z" fill="#decd87" stroke="#28220b"/>
  <path d="m1144.7 943.08c0.9316 2.9016-1.5786 6.4556-4.6428 5.1673l-8.4991-3.573c-3.0642-1.288-7.0741-2.4052-8.0058-5.3058s1.5777-6.4542 4.6422-5.1667l8.4996 3.5716c3.0643 1.2878 7.0743 2.4051 8.0059 5.3066z" fill="#decd87" stroke="#28220b"/>
  <path d="m1144.7 952.26c0.9312 2.9017-1.5794 6.4554-4.6435 5.1667l-8.4986-3.574c-3.0641-1.2884-7.0738-2.4061-8.0052-5.3068s1.5786-6.454 4.6428-5.1661l8.4992 3.5727c3.0642 1.2882 7.074 2.406 8.0053 5.3076z" fill="#decd87" stroke="#28220b"/>
  <path d="m1144.6 961.44c0.9309 2.9018-1.5801 6.4552-4.644 5.1661l-8.4983-3.575c-3.0639-1.2888-7.0734-2.407-8.0045-5.3078s1.5793-6.4539 4.6435-5.1655l8.4987 3.5737c3.064 1.2886 7.0737 2.4068 8.0046 5.3085z" fill="#decd87" stroke="#28220b"/>
  <path d="m1144.5 970.62c0.9306 2.9019-1.5809 6.455-4.6446 5.1656l-8.4978-3.576c-3.0638-1.2892-7.0732-2.4078-8.0039-5.3088s1.5801-6.4537 4.6441-5.165l8.4983 3.5747c3.0639 1.289 7.0734 2.4077 8.0039 5.3095z" fill="#decd87" stroke="#28220b"/>
  <path d="m1144.5 979.8c0.9302 2.902-1.5817 6.4548-4.6453 5.165l-8.4973-3.577c-3.0637-1.2895-7.073-2.4086-8.0033-5.3097s1.5809-6.4535 4.6447-5.1644l8.4978 3.5757c3.0638 1.2893 7.0732 2.4085 8.0034 5.3104z" fill="#decd87" stroke="#28220b"/>
  <path d="m1144.4 988.98c0.9299 2.9021-1.5824 6.4546-4.6458 5.1645l-8.497-3.578c-3.0635-1.2899-7.0727-2.4094-8.0027-5.3106s1.5816-6.4533 4.6453-5.1639l8.4974 3.5767c3.0637 1.2897 7.0729 2.4093 8.0028 5.3113z" fill="#decd87" stroke="#28220b"/>
  <path d="m1144.3 998.16c0.9295 2.9022-1.5831 6.4544-4.6464 5.164l-8.4966-3.5789c-3.0634-1.2902-7.0724-2.4102-8.0021-5.3115s1.5824-6.4532 4.6459-5.1634c2.8323 1.1924 5.6647 2.385 8.497 3.5777 3.0635 1.29 7.0726 2.4101 8.0022 5.3122z" fill="#decd87" stroke="#28220b"/>
  <path d="m1144.2 1007.3c0.9292 2.9023-1.5838 6.4542-4.647 5.1635l-8.4961-3.5799c-3.0633-1.2905-7.0722-2.411-8.0015-5.3124s1.583-6.453 4.6464-5.1629l8.4966 3.5786c3.0634 1.2904 7.0724 2.4109 8.0016 5.3131z" fill="#decd87" stroke="#28220b"/>
  <path d="m1144.1 1016.5c0.9289 2.9023-1.5845 6.454-4.6475 5.1629l-8.4958-3.5807c-3.0631-1.2909-7.0719-2.4118-8.0009-5.3133s1.5837-6.4529 4.6469-5.1624l8.4963 3.5796c3.0632 1.2907 7.0721 2.4116 8.001 5.3139z" fill="#decd87" stroke="#28220b"/>
  <path d="m1144.0663,1025.6982c.9286,2.9025-1.5852,6.4539-4.6481,5.1625l-8.4954-3.5817c-2.5136-1.0596-5.6641-2.0048-7.2266-3.9134-.3415-.4171-.6072-.8802-.7738-1.4007-.9287-2.9017 1.5845-6.4527 4.6476-5.1619l8.4958,3.5805c2.1509.9065 4.7681,1.7294 6.4577,3.1441 .7165.5999 1.2662,1.3063 1.5428,2.1706z" fill="#decd87" stroke="#28220b"/>
  <path d="m1144 1034.9c0.9283 2.9026-1.5859 6.4538-4.6487 5.162l-8.495-3.5826c-3.0628-1.2915-7.0713-2.4133-7.9997-5.315s1.5851-6.4525 4.648-5.1614l8.4955 3.5814c3.0629 1.2913 7.0716 2.4131 7.9999 5.3156z" fill="#decd87" stroke="#28220b"/>
  <path d="m1143.9 1044.1c0.9279 2.9027-1.5867 6.4536-4.6493 5.1614l-8.4946-3.5836c-3.0626-1.2919-7.0711-2.4141-7.9991-5.3159s1.5858-6.4523 4.6486-5.1609l8.4951 3.5824c3.0628 1.2917 7.0713 2.4139 7.9993 5.3166z" fill="#decd87" stroke="#28220b"/>
  <path d="m1143.8 1053.2c0.9276 2.9028-1.5874 6.4534-4.6499 5.1609-2.8313-1.1951-5.6627-2.39-8.4941-3.5847-3.0625-1.2923-7.0708-2.415-7.9985-5.3169s1.5866-6.452 4.6492-5.1602l8.4947 3.5833c3.0626 1.292 7.071 2.4148 7.9986 5.3176z" fill="#decd87" stroke="#28220b"/>
  <path d="m1143.7 1062.4c0.9272 2.903-1.5883 6.4533-4.6505 5.1603l-8.4937-3.5858c-3.0623-1.2926-7.0705-2.4158-7.9978-5.3178s1.5874-6.4518 4.6499-5.1597l8.4942 3.5844c3.0624 1.2924 7.0707 2.4157 7.9979 5.3186z" fill="#decd87" stroke="#28220b"/>
  <path d="m1143.7 1071.6c0.9269 2.9032-1.5892 6.4531-4.6512 5.1597l-8.4932-3.5869c-3.0622-1.2931-7.0701-2.4168-7.9971-5.3189s1.5882-6.4516 4.6506-5.1591l8.4937 3.5855c3.0623 1.2929 7.0704 2.4167 7.9972 5.3197z" fill="#decd87" stroke="#28220b"/>
  <path d="m1143.6 1080.8c0.9264 2.9033-1.5901 6.4529-4.652 5.1591l-8.4927-3.5882c-3.062-1.2935-7.0698-2.4178-7.9964-5.32s1.5891-6.4513 4.6513-5.1584l8.4933 3.5866c3.0621 1.2933 7.0701 2.4177 7.9965 5.3209z" fill="#decd87" stroke="#28220b"/>
  <path d="m1143.5 1090c0.926 2.9034-1.5911 6.4527-4.6528 5.1584l-8.4921-3.5894c-3.0618-1.294-7.0694-2.4189-7.9956-5.3212s1.59-6.451 4.652-5.1577l8.4928 3.5879c3.0619 1.2937 7.0697 2.4186 7.9957 5.322z" fill="#decd87" stroke="#28220b"/>
  <path d="m1143.4 1099.1c0.9255 2.9036-1.5921 6.4526-4.6536 5.1578l-8.4916-3.5908c-3.0616-1.2944-7.069-2.4199-7.9948-5.3223s1.591-6.4508 4.6528-5.157l8.4922 3.5891c3.0618 1.2942 7.0694 2.4197 7.995 5.3232z" fill="#decd87" stroke="#28220b"/>
  <path d="m1143.3063,1108.3191c.9251,2.9038-1.5931,6.4525-4.6544,5.1571-2.8303-1.1976-5.6606-2.395-8.491-3.5922-2.092-.8849-4.6258-1.6909-6.3159-3.0389-.7831-.6246-1.3851-1.3656-1.6781-2.2846-.9252-2.9027 1.592-6.4505 4.6536-5.1563l8.4917,3.5904c2.5611,1.0831 5.7843,2.0482 7.3111,4.0348 .2982.3881.5318.8151.683,1.2897z" fill="#decd87" stroke="#28220b"/>
  <path d="m1143.2 1117.5c0.9245 2.9042-1.5946 6.4526-4.6555 5.1564l-8.4902-3.5942c-3.0611-1.2956-7.0681-2.4223-7.9929-5.3248s1.593-6.4501 4.6544-5.1554l8.4911 3.5918c3.0613 1.2951 7.0686 2.422 7.9931 5.3262z" fill="#decd87" stroke="#28220b"/>
  <path d="m1143.1223,1126.6816c.7186,2.26-.6475,4.9095-2.7307,5.3632-.4195.091-.868.093-1.3345-.014-.1945-.045-.3921-.109-.592-.1937l-8.489-3.5971c-3.0607-1.2965-7.0674-2.4243-7.9914-5.3268s1.5945-6.4491 4.6556-5.1538l8.4903,3.5936c3.061,1.2959 7.068,2.4239 7.9917,5.3287z" fill="#decd87" stroke="#28220b"/>
  <path d="m1143.0273,1135.8594c.9238,2.9073-1.6023,6.4735-4.6605,5.1664-2.8274-1.2085-5.6563-2.4094-8.4858-3.6079-3.0604-1.2963-7.0682-2.418-7.9913-5.3292-.025-.079-.048-.1594-.068-.2398-.7171-2.8534 1.748-6.1735 4.7252-4.9128l8.4892,3.5962c1.1501.4874 2.4338.9512 3.6373,1.4944 1.999.9006 3.7772,2.0181 4.3538,3.8327z" fill="#decd87" stroke="#28220b"/>
  <path d="m1097.1 448.21c7.4068 0.0154 14.255 7.327 18.487 12.844m-19.364-10.087c7.4068 0.0154 14.253 7.3309 18.486 12.848m-16.731-18.363c7.4068 0.0154 14.256 7.323 18.488 12.84m-17.611-15.598c7.407 0.0154 14.257 7.319 18.49 12.836m-17.612-15.594c7.4068 0.0154 14.258 7.3151 18.491 12.832m-17.613-15.59c7.4067 0.0154 14.26 7.3111 18.492 12.828m-17.615-15.586c7.4069 0.0154 14.261 7.3071 18.493 12.824m-17.616-15.582c7.4066 0.0154 14.262 7.3031 18.494 12.821" fill="none" stroke="#424242" stroke-linecap="round" stroke-width="2.1061"/>
  <path transform="matrix(.26947 .25089 .21568 -.59483 786.99 446.26)" d="m914.76 347.5c0 1.624-10.393 2.9406-23.214 2.9406s-23.214-1.3166-23.214-2.9406 10.393-2.9406 23.214-2.9406 23.214 1.3166 23.214 2.9406z" fill="#decd87" fill-rule="evenodd" stroke="#28220b" stroke-linecap="round" stroke-width="2.1597"/>
 </g>
</svg>
